<svg width="239" height="18" viewBox="0 0 239 18" fill="none" xmlns="http://www.w3.org/2000/svg">
<g id="logo-9E1 1" clip-path="url(#clip0_91_106)">
<path id="Path 30943" fill-rule="evenodd" clip-rule="evenodd" d="M88.3641 16.7929C88.1292 17.1646 87.7985 17.4712 87.4042 17.6827C87.0099 17.8943 86.5656 18.0036 86.1145 18H78.9385C78.9141 17.9996 78.8903 17.9927 78.8697 17.98C78.8491 17.9673 78.8325 17.9493 78.8219 17.928C78.8098 17.9062 78.8041 17.8815 78.8054 17.8568C78.8066 17.832 78.8148 17.808 78.829 17.7874L89.4786 1.82814C89.8315 1.26977 90.3285 0.809347 90.921 0.491872C91.5135 0.174396 92.1812 0.0107344 92.8589 0.0168891H104.144C104.822 0.0108451 105.489 0.174553 106.082 0.492018C106.674 0.809483 107.171 1.26985 107.524 1.82814L118.174 17.7874C118.188 17.808 118.196 17.832 118.198 17.8568C118.199 17.8815 118.193 17.9062 118.181 17.928C118.17 17.9494 118.154 17.9674 118.133 17.9801C118.113 17.9929 118.089 17.9998 118.064 18H110.885C110.434 18.0037 109.989 17.8944 109.595 17.6829C109.2 17.4713 108.869 17.1647 108.634 16.7929L105.897 12.6923C105.868 12.6459 105.826 12.6076 105.777 12.5812C105.728 12.5548 105.673 12.5411 105.616 12.5415H94.5282C94.5036 12.5412 94.4797 12.5341 94.459 12.5212C94.4384 12.5082 94.422 12.4899 94.4117 12.4684C94.4002 12.4465 94.3949 12.4222 94.3961 12.3977C94.3974 12.3733 94.4051 12.3496 94.4186 12.3289L96.1334 9.75826C96.1628 9.71182 96.204 9.67345 96.2532 9.64686C96.3024 9.62026 96.3579 9.60632 96.4143 9.60639H103.588C103.612 9.60614 103.636 9.59926 103.657 9.58653C103.677 9.5738 103.694 9.55573 103.704 9.53439C103.717 9.51273 103.722 9.48829 103.721 9.4637C103.72 9.43911 103.712 9.41532 103.698 9.39489L99.8076 3.56626C99.6904 3.38012 99.5251 3.22656 99.3279 3.12065C99.1307 3.01474 98.9084 2.96012 98.6828 2.96214H98.333C98.1074 2.96023 97.885 3.0149 97.6878 3.1208C97.4907 3.2267 97.3254 3.38019 97.2082 3.56626L88.3641 16.7929ZM76.5908 9.38139V17.6546C76.5921 17.6991 76.5842 17.7435 76.5676 17.785C76.551 17.8266 76.5261 17.8645 76.4942 17.8967C76.4623 17.9289 76.4242 17.9548 76.3819 17.9727C76.3397 17.9906 76.2942 18.0003 76.248 18.0011H52.1396C38.2855 18.0011 38.5011 9.95064 38.5011 9.01014C38.5011 8.06964 38.2879 0.0191379 52.1396 0.0191379H76.248C76.2943 0.02001 76.3399 0.0297229 76.3822 0.0477109C76.4245 0.0656989 76.4628 0.0916086 76.4946 0.123937C76.5265 0.156266 76.5514 0.194372 76.5679 0.236053C76.5844 0.277735 76.5922 0.322162 76.5908 0.366765V2.65502C76.5922 2.69962 76.5844 2.74405 76.5679 2.78573C76.5514 2.82741 76.5265 2.86551 76.4946 2.89784C76.4628 2.93017 76.4245 2.95608 76.3822 2.97407C76.3399 2.99206 76.2943 3.00177 76.248 3.00264H55.2216C48.8896 3.00264 47.6144 6.14139 47.6144 9.03714C47.6144 11.9329 48.8896 15.0728 55.2216 15.0728H67.762C67.8088 15.0728 67.8552 15.0637 67.8983 15.0461C67.9414 15.0285 67.9804 15.0028 68.013 14.9704C68.0456 14.9379 68.0712 14.8995 68.0881 14.8574C68.1051 14.8153 68.113 14.7703 68.1116 14.7251V9.38139C68.1104 9.33632 68.1185 9.29146 68.1355 9.24947C68.1525 9.20748 68.1782 9.1692 68.2108 9.1369C68.2434 9.1046 68.2823 9.07893 68.3253 9.06141C68.3684 9.04389 68.4147 9.03488 68.4614 9.03489H76.2586C76.3495 9.03984 76.4349 9.0788 76.4965 9.1435C76.5581 9.20821 76.5911 9.29355 76.5885 9.38139H76.5908ZM215.782 7.67027H236.449C236.496 7.67114 236.541 7.68081 236.583 7.69873C236.626 7.71665 236.664 7.74246 236.696 7.77467C236.727 7.80687 236.752 7.84484 236.769 7.8864C236.786 7.92795 236.793 7.97225 236.792 8.01676V10.0024C236.793 10.0469 236.786 10.0912 236.769 10.1328C236.752 10.1743 236.727 10.2123 236.696 10.2445C236.664 10.2767 236.626 10.3025 236.583 10.3204C236.541 10.3383 236.496 10.348 236.449 10.3489H215.782C215.578 10.3442 215.384 10.2616 215.243 10.1194C215.101 9.97707 215.024 9.78658 215.028 9.58951V8.42964C215.024 8.23268 215.101 8.04219 215.242 7.89987C215.383 7.75754 215.578 7.67499 215.782 7.67027ZM201.269 9.00901C201.269 8.06851 201.056 0.0180135 214.908 0.0180135H238.655C238.702 0.0179975 238.748 0.0270185 238.791 0.0445395C238.834 0.0620605 238.873 0.0877283 238.906 0.120028C238.938 0.152327 238.964 0.190603 238.981 0.232595C238.998 0.274586 239.006 0.319444 239.005 0.364516V2.65502C239.006 2.70009 238.998 2.74495 238.981 2.78694C238.964 2.82893 238.938 2.8672 238.906 2.8995C238.873 2.9318 238.834 2.95747 238.791 2.97499C238.748 2.99251 238.702 3.00153 238.655 3.00151H217.99C211.678 3.00151 210.391 6.12339 210.383 9.01126C210.374 11.8991 211.677 15.021 217.99 15.021H238.655C238.702 15.021 238.748 15.03 238.791 15.0475C238.834 15.0651 238.873 15.0907 238.906 15.123C238.938 15.1553 238.964 15.1936 238.981 15.2356C238.998 15.2776 239.006 15.3224 239.005 15.3675V17.658C239.006 17.7031 238.998 17.7479 238.981 17.7899C238.964 17.8319 238.938 17.8702 238.906 17.9025C238.873 17.9348 238.834 17.9605 238.791 17.978C238.748 17.9955 238.702 18.0045 238.655 18.0045H214.908C201.054 18 201.267 9.95176 201.267 9.00901H201.269ZM120.735 18H128.537C128.63 18 128.719 17.9645 128.784 17.9012C128.85 17.8379 128.887 17.752 128.887 17.6625C128.945 12.8993 128.887 8.10002 128.887 3.33339C128.885 3.28888 128.893 3.24457 128.91 3.20302C128.926 3.16147 128.951 3.1235 128.983 3.09129C129.015 3.05908 129.053 3.03328 129.095 3.01536C129.138 2.99744 129.183 2.98776 129.229 2.98689H141.77C148.102 2.98689 149.376 5.08052 149.376 7.01214C149.376 8.94377 148.101 11.0374 141.77 11.0374H132.509C132.463 11.0374 132.416 11.0464 132.373 11.064C132.33 11.0816 132.291 11.1074 132.258 11.1398C132.226 11.1722 132.2 11.2106 132.183 11.2527C132.166 11.2949 132.158 11.3398 132.16 11.385V13.6755C132.159 13.7206 132.167 13.7654 132.184 13.8074C132.201 13.8494 132.226 13.8877 132.259 13.92C132.291 13.9523 132.33 13.978 132.373 13.9955C132.416 14.013 132.463 14.022 132.509 14.022H144.851C158.706 14.022 158.489 7.74677 158.489 7.01327C158.489 6.27977 158.705 0.00451662 144.851 0.00451662H120.743C120.697 0.00524425 120.651 0.0148082 120.609 0.0326605C120.567 0.0505128 120.528 0.0762987 120.496 0.108522C120.464 0.140745 120.439 0.178766 120.423 0.220389C120.406 0.262013 120.398 0.306412 120.399 0.351015V17.6535C120.397 17.7419 120.43 17.8277 120.493 17.8925C120.555 17.9573 120.641 17.9959 120.733 18H120.735ZM160.979 18H168.78C168.872 18 168.961 17.9645 169.027 17.9012C169.092 17.8379 169.129 17.752 169.129 17.6625C169.189 12.8993 169.129 8.10002 169.129 3.33339C169.128 3.28832 169.136 3.24346 169.153 3.20147C169.17 3.15948 169.196 3.1212 169.228 3.0889C169.261 3.0566 169.3 3.03094 169.343 3.01341C169.386 2.99589 169.432 2.98687 169.479 2.98689H182.017C188.35 2.98689 189.624 5.08052 189.624 7.01214C189.624 8.94377 188.35 11.0374 182.017 11.0374H172.758C172.711 11.0374 172.665 11.0464 172.622 11.064C172.579 11.0816 172.54 11.1074 172.507 11.1398C172.474 11.1722 172.449 11.2106 172.432 11.2527C172.415 11.2949 172.407 11.3398 172.408 11.385V13.6755C172.407 13.7206 172.415 13.7654 172.432 13.8074C172.449 13.8494 172.475 13.8877 172.507 13.92C172.54 13.9523 172.579 13.978 172.622 13.9955C172.665 14.013 172.711 14.022 172.758 14.022H185.098C198.953 14.022 198.736 7.74677 198.736 7.01327C198.736 6.27977 198.952 0.00451662 185.098 0.00451662H160.992C160.945 0.00450059 160.899 0.0135173 160.856 0.0310383C160.813 0.0485593 160.774 0.0742271 160.741 0.106526C160.708 0.138826 160.683 0.177101 160.666 0.219093C160.649 0.261085 160.641 0.305942 160.642 0.351015V17.6535C160.639 17.7421 160.673 17.8281 160.736 17.8929C160.798 17.9577 160.885 17.9962 160.977 18H160.979ZM9.56906 16.7929C9.33414 17.1646 9.00329 17.4712 8.609 17.6827C8.2147 17.8943 7.77036 18.0036 7.31924 18H0.138624C0.114246 17.9994 0.0905784 17.9923 0.070038 17.9797C0.0494976 17.967 0.0328909 17.9491 0.0220847 17.928C0.0105137 17.906 0.00514199 17.8813 0.00657458 17.8566C0.00800718 17.832 0.0162867 17.8081 0.0303378 17.7874L10.6787 1.82814C11.0318 1.26992 11.5289 0.809618 12.1214 0.492164C12.7139 0.174709 13.3815 0.0109556 14.0592 0.0168891H25.3453C26.0229 0.0109556 26.6905 0.174709 27.283 0.492164C27.8755 0.809618 28.3726 1.26992 28.7258 1.82814L39.3754 17.7874C39.389 17.8083 39.3969 17.8322 39.3981 17.8568C39.3994 17.8815 39.3939 17.906 39.3823 17.928C39.3715 17.9491 39.3551 17.967 39.3345 17.9797C39.314 17.9923 39.2902 17.9994 39.2658 18H32.0852C31.6339 18.0038 31.1892 17.8946 30.7947 17.683C30.4002 17.4714 30.0694 17.1648 29.8344 16.7929L27.0973 12.6923C27.0679 12.646 27.0266 12.6078 26.9774 12.5813C26.9282 12.5549 26.8727 12.5412 26.8164 12.5415H15.7284C15.7039 12.5409 15.68 12.5337 15.6594 12.5208C15.6388 12.5079 15.6224 12.4898 15.6119 12.4684C15.6003 12.4465 15.5949 12.4221 15.5964 12.3976C15.5978 12.3731 15.6059 12.3494 15.62 12.3289L17.3359 9.75826C17.3651 9.71167 17.4064 9.67318 17.4556 9.64656C17.5048 9.61995 17.5604 9.6061 17.6168 9.60639H24.7893C24.8137 9.60588 24.8375 9.59889 24.858 9.58619C24.8786 9.57349 24.8952 9.55557 24.9059 9.53439C24.9174 9.51253 24.9228 9.48809 24.9214 9.46357C24.9199 9.43906 24.9117 9.41535 24.8976 9.39489L21.009 3.56626C20.8915 3.38034 20.7262 3.22697 20.529 3.12109C20.3319 3.01522 20.1097 2.96045 19.8841 2.96214H19.5344C19.3088 2.96056 19.0866 3.01537 18.8895 3.12124C18.6924 3.22711 18.5271 3.38042 18.4095 3.56626L9.56906 16.7929Z" fill="#002581"/>
</g>
<defs>
<clipPath id="clip0_91_106">
<rect width="239" height="18" fill="white"/>
</clipPath>
</defs>
</svg>
