<svg width="32" height="32" viewBox="0 0 32 32" fill="none" xmlns="http://www.w3.org/2000/svg">
<g id="icons">
<circle id="Ellipse 2" cx="16" cy="16" r="16" fill="#212438"/>
<path id="email" d="M22.6667 8.50003H9.33333C7.5 8.50003 6 10 6 11.8334V20.1667C6 22 7.5 23.5 9.33333 23.5H22.6667C24.5 23.5 26 22 26 20.1667V11.8334C26 10 24.5 8.50003 22.6667 8.50003ZM24 13.3334L17.4167 17.75C17 18 16.5 18.1667 16 18.1667C15.5 18.1667 15 18 14.5833 17.75L8 13.3334C7.66667 13.0834 7.58333 12.5834 7.83333 12.1667C8.08333 11.8334 8.58333 11.75 9 12L15.5833 16.4167C15.8333 16.5834 16.25 16.5834 16.5 16.4167L23.0833 12C23.5 11.75 24 11.8334 24.25 12.25C24.4167 12.5834 24.3333 13.0834 24 13.3334Z" fill="white"/>
</g>
</svg>
