<svg width="32" height="32" viewBox="0 0 32 32" fill="none" xmlns="http://www.w3.org/2000/svg">
<g id="twitter_color">
<circle id="Ellipse 2" cx="16" cy="16" r="16" fill="#212438"/>
<path id="Shape" d="M23.038 11.4666C22.5073 11.7157 21.9368 11.8833 21.3378 11.9601C21.9479 11.5714 22.4192 10.9591 22.6394 10.2282C22.0668 10.5867 21.4325 10.8474 20.7586 10.9871C20.219 10.3795 19.4504 10 18.5981 10C16.9639 10 15.6381 11.4014 15.6381 13.1287C15.6381 13.3732 15.6645 13.6129 15.7152 13.8411C13.2551 13.7107 11.0748 12.4629 9.61463 10.5704C9.35915 11.0336 9.2138 11.5714 9.2138 12.1464C9.2138 13.2312 9.73576 14.1879 10.5308 14.7489C10.0441 14.7326 9.5882 14.593 9.18957 14.3579C9.18957 14.3718 9.18957 14.3835 9.18957 14.3974C9.18957 15.9129 10.2093 17.1769 11.5637 17.4656C11.3149 17.5378 11.055 17.575 10.7841 17.575C10.5925 17.575 10.4075 17.5564 10.2269 17.5191C10.6035 18.7599 11.6959 19.6678 12.9909 19.6911C11.98 20.5314 10.7026 21.0296 9.31511 21.0296C9.07505 21.0296 8.8416 21.0156 8.61035 20.9877C9.91856 21.8746 11.4756 22.3914 13.1472 22.3914C18.5915 22.3914 21.5691 17.6239 21.5691 13.4919C21.5691 13.3545 21.5669 13.2195 21.5602 13.0845C22.1395 12.6469 22.6416 12.0951 23.038 11.4666Z" fill="white"/>
</g>
</svg>
