<svg width="205" height="16" viewBox="0 0 205 16" fill="none" xmlns="http://www.w3.org/2000/svg">
<g id="logo-9E1 2" clip-path="url(#clip0_91_123)">
<path id="Path 30943" fill-rule="evenodd" clip-rule="evenodd" d="M75.7934 14.927C75.5919 15.2574 75.3083 15.5299 74.9701 15.718C74.6319 15.906 74.2507 16.0032 73.8638 16H67.7087C67.6877 15.9997 67.6673 15.9935 67.6496 15.9822C67.632 15.9709 67.6177 15.9549 67.6086 15.936C67.5982 15.9166 67.5934 15.8947 67.5945 15.8727C67.5955 15.8507 67.6025 15.8293 67.6147 15.811L76.7493 1.625C77.0521 1.12867 77.4783 0.719403 77.9866 0.437202C78.4948 0.155002 79.0675 0.00952478 79.6488 0.0149956H89.3284C89.9096 0.00962312 90.4824 0.155141 90.9906 0.437332C91.4988 0.719523 91.9251 1.12874 92.228 1.625L101.363 15.811C101.375 15.8293 101.382 15.8507 101.383 15.8727C101.384 15.8947 101.379 15.9166 101.369 15.936C101.36 15.955 101.345 15.971 101.328 15.9823C101.31 15.9937 101.29 15.9998 101.269 16H95.1106C94.7235 16.0033 94.3421 15.9061 94.0037 15.7181C93.6653 15.53 93.3815 15.2575 93.1798 14.927L90.8322 11.282C90.807 11.2408 90.7715 11.2068 90.7293 11.1833C90.687 11.1598 90.6395 11.1476 90.5912 11.148H81.0806C81.0595 11.1477 81.039 11.1414 81.0213 11.1299C81.0036 11.1184 80.9895 11.1021 80.9806 11.083C80.9708 11.0636 80.9663 11.0419 80.9673 11.0202C80.9684 10.9985 80.975 10.9774 80.9866 10.959L82.4575 8.674C82.4827 8.63271 82.518 8.59861 82.5602 8.57497C82.6024 8.55132 82.65 8.53893 82.6984 8.53899H88.8515C88.8725 8.53877 88.8929 8.53266 88.9106 8.52134C88.9283 8.51002 88.9425 8.49397 88.9515 8.475C88.9619 8.45575 88.9668 8.43402 88.9658 8.41216C88.9647 8.39031 88.9577 8.36916 88.9455 8.351L85.609 3.16999C85.5085 3.00453 85.3667 2.86804 85.1975 2.7739C85.0284 2.67975 84.8377 2.6312 84.6441 2.633H84.3441C84.1506 2.6313 83.9599 2.6799 83.7907 2.77403C83.6216 2.86816 83.4799 3.0046 83.3793 3.16999L75.7934 14.927ZM65.695 8.339V15.693C65.696 15.7326 65.6893 15.7719 65.6751 15.8089C65.6609 15.8458 65.6394 15.8796 65.6121 15.9082C65.5848 15.9368 65.552 15.9598 65.5158 15.9757C65.4796 15.9916 65.4405 16.0002 65.401 16.001H44.7222C32.839 16.001 33.0239 8.845 33.0239 8.009C33.0239 7.173 32.841 0.0169945 44.7222 0.0169945H65.401C65.4406 0.0177697 65.4798 0.0264034 65.516 0.0423927C65.5523 0.0583821 65.5851 0.0814129 65.6125 0.110149C65.6398 0.138886 65.6612 0.172758 65.6753 0.209808C65.6895 0.246858 65.6962 0.286349 65.695 0.325996V2.36C65.6962 2.39964 65.6895 2.43913 65.6753 2.47618C65.6612 2.51323 65.6398 2.54711 65.6125 2.57584C65.5851 2.60458 65.5523 2.62761 65.516 2.6436C65.4798 2.65959 65.4406 2.66822 65.401 2.66899H47.3657C41.9345 2.66899 40.8407 5.459 40.8407 8.033C40.8407 10.607 41.9345 13.398 47.3657 13.398H58.1221C58.1623 13.398 58.2021 13.39 58.2391 13.3743C58.2761 13.3587 58.3095 13.3358 58.3374 13.307C58.3654 13.2782 58.3874 13.244 58.4019 13.2066C58.4164 13.1691 58.4232 13.1291 58.422 13.089V8.339C58.421 8.29893 58.4279 8.25906 58.4425 8.22173C58.4571 8.18441 58.4791 8.15038 58.5071 8.12167C58.5351 8.09296 58.5684 8.07015 58.6053 8.05457C58.6423 8.039 58.682 8.03098 58.722 8.031H65.41C65.488 8.03539 65.5612 8.07002 65.6141 8.12754C65.6669 8.18506 65.6952 8.26092 65.693 8.339H65.695ZM185.085 6.818H202.812C202.852 6.81877 202.891 6.82737 202.927 6.8433C202.963 6.85923 202.996 6.88217 203.023 6.9108C203.051 6.93943 203.072 6.97318 203.086 7.01011C203.101 7.04705 203.107 7.08643 203.106 7.126V8.891C203.107 8.93056 203.101 8.96995 203.086 9.00688C203.072 9.04382 203.051 9.07756 203.023 9.10619C202.996 9.13482 202.963 9.15776 202.927 9.17369C202.891 9.18962 202.852 9.19822 202.812 9.199H185.085C184.91 9.1948 184.743 9.12144 184.622 8.99496C184.501 8.86849 184.435 8.69916 184.438 8.52399V7.493C184.435 7.31792 184.501 7.1486 184.622 7.02209C184.743 6.89558 184.91 6.82219 185.085 6.818ZM172.637 8.008C172.637 7.172 172.454 0.015995 184.335 0.015995H204.704C204.744 0.0159808 204.784 0.0239995 204.821 0.0395737C204.858 0.0551479 204.891 0.0779638 204.919 0.106674C204.947 0.135385 204.969 0.169408 204.983 0.206734C204.998 0.24406 205.005 0.283933 205.004 0.323998V2.36C205.005 2.40006 204.998 2.43993 204.983 2.47726C204.969 2.51459 204.947 2.54861 204.919 2.57732C204.891 2.60603 204.858 2.62885 204.821 2.64442C204.784 2.65999 204.744 2.66801 204.704 2.668H186.979C181.564 2.668 180.461 5.44299 180.454 8.00999C180.447 10.577 181.563 13.352 186.979 13.352H204.704C204.744 13.352 204.784 13.36 204.821 13.3756C204.858 13.3911 204.891 13.414 204.919 13.4427C204.947 13.4714 204.969 13.5054 204.983 13.5427C204.998 13.5801 205.005 13.6199 205.004 13.66V15.696C205.005 15.7361 204.998 15.7759 204.983 15.8133C204.969 15.8506 204.947 15.8846 204.919 15.9133C204.891 15.942 204.858 15.9648 204.821 15.9804C204.784 15.996 204.744 16.004 204.704 16.004H184.335C172.452 16 172.635 8.846 172.635 8.008H172.637ZM103.559 16H110.251C110.331 16 110.407 15.9684 110.463 15.9121C110.52 15.8559 110.551 15.7796 110.551 15.7C110.601 11.466 110.551 7.2 110.551 2.963C110.55 2.92343 110.557 2.88405 110.571 2.84711C110.585 2.81018 110.607 2.77642 110.634 2.7478C110.661 2.71917 110.694 2.69623 110.73 2.6803C110.767 2.66437 110.806 2.65577 110.845 2.65499H121.602C127.033 2.65499 128.125 4.516 128.125 6.233C128.125 7.95 127.032 9.811 121.602 9.811H113.659C113.619 9.81098 113.579 9.81903 113.542 9.83466C113.505 9.8503 113.471 9.87321 113.443 9.90202C113.415 9.93084 113.393 9.96498 113.379 10.0024C113.364 10.0399 113.358 10.0798 113.359 10.12V12.156C113.358 12.1961 113.365 12.2359 113.379 12.2733C113.394 12.3106 113.416 12.3446 113.444 12.3733C113.472 12.402 113.505 12.4248 113.542 12.4404C113.579 12.456 113.619 12.464 113.659 12.464H124.244C136.128 12.464 135.942 6.886 135.942 6.234C135.942 5.582 136.127 0.00399782 124.244 0.00399782H103.566C103.527 0.0046446 103.487 0.0131459 103.451 0.0290146C103.415 0.0448833 103.382 0.0678041 103.355 0.096447C103.327 0.12509 103.306 0.158886 103.291 0.195885C103.277 0.232883 103.27 0.272349 103.271 0.311996V15.692C103.269 15.7706 103.298 15.8469 103.351 15.9044C103.405 15.962 103.479 15.9964 103.557 16H103.559ZM138.078 16H144.769C144.849 16 144.925 15.9684 144.981 15.9121C145.037 15.8559 145.069 15.7796 145.069 15.7C145.12 11.466 145.069 7.2 145.069 2.963C145.068 2.92293 145.075 2.88306 145.089 2.84573C145.104 2.80841 145.126 2.77438 145.154 2.74567C145.182 2.71696 145.215 2.69415 145.252 2.67857C145.289 2.663 145.329 2.65498 145.369 2.65499H156.123C161.555 2.65499 162.648 4.516 162.648 6.233C162.648 7.95 161.555 9.811 156.123 9.811H148.182C148.141 9.81098 148.102 9.81903 148.065 9.83466C148.028 9.8503 147.994 9.87321 147.966 9.90202C147.938 9.93084 147.916 9.96498 147.902 10.0024C147.887 10.0399 147.88 10.0798 147.882 10.12V12.156C147.88 12.1961 147.887 12.2359 147.902 12.2733C147.917 12.3106 147.939 12.3446 147.966 12.3733C147.994 12.402 148.028 12.4248 148.065 12.4404C148.102 12.456 148.141 12.464 148.182 12.464H158.766C170.65 12.464 170.464 6.886 170.464 6.234C170.464 5.582 170.649 0.00399782 158.766 0.00399782H138.089C138.049 0.00398357 138.009 0.0119984 137.972 0.0275727C137.935 0.0431469 137.902 0.0659627 137.874 0.0946732C137.846 0.123384 137.824 0.157407 137.81 0.194733C137.795 0.232059 137.788 0.271932 137.789 0.311996V15.692C137.787 15.7707 137.816 15.8472 137.869 15.9048C137.923 15.9624 137.997 15.9966 138.076 16H138.078ZM8.20769 14.927C8.00619 15.2574 7.72241 15.5299 7.38421 15.718C7.04601 15.906 6.66488 16.0032 6.27793 16H0.11883C0.0979198 15.9994 0.0776192 15.9932 0.0600009 15.9819C0.0423825 15.9706 0.0281383 15.9548 0.0188694 15.936C0.00894444 15.9164 0.00433695 15.8945 0.00556574 15.8726C0.00679453 15.8506 0.0138962 15.8294 0.0259484 15.811L9.15945 1.625C9.46234 1.1288 9.88874 0.719644 10.3969 0.437462C10.9051 0.15528 11.4778 0.0097214 12.059 0.0149956H21.7396C22.3208 0.0097214 22.8935 0.15528 23.4017 0.437462C23.9099 0.719644 24.3363 1.1288 24.6392 1.625L33.7738 15.811C33.7855 15.8295 33.7923 15.8508 33.7933 15.8727C33.7944 15.8946 33.7896 15.9164 33.7798 15.936C33.7705 15.9548 33.7564 15.9706 33.7387 15.9819C33.7211 15.9932 33.7007 15.9994 33.6798 16H27.5207C27.1336 16.0034 26.7522 15.9063 26.4138 15.7182C26.0754 15.5302 25.7917 15.2575 25.5901 14.927L23.2424 11.282C23.2171 11.2408 23.1817 11.2069 23.1395 11.1834C23.0973 11.1599 23.0498 11.1477 23.0015 11.148H13.4908C13.4698 11.1475 13.4493 11.1411 13.4316 11.1296C13.414 11.1181 13.3999 11.102 13.3909 11.083C13.3809 11.0636 13.3763 11.0418 13.3776 11.0201C13.3788 10.9983 13.3858 10.9772 13.3978 10.959L14.8697 8.674C14.8947 8.63258 14.9301 8.59837 14.9723 8.57471C15.0145 8.55105 15.0622 8.53874 15.1106 8.53899H21.2627C21.2837 8.53854 21.304 8.53233 21.3217 8.52104C21.3393 8.50975 21.3535 8.49382 21.3627 8.475C21.3726 8.45557 21.3772 8.43384 21.376 8.41205C21.3748 8.39026 21.3677 8.36919 21.3556 8.351L18.0202 3.16999C17.9194 3.00473 17.7776 2.8684 17.6085 2.77429C17.4394 2.68018 17.2489 2.6315 17.0554 2.633H16.7554C16.5619 2.63159 16.3713 2.68031 16.2022 2.77442C16.0331 2.86852 15.8913 3.0048 15.7905 3.16999L8.20769 14.927Z" fill="white"/>
</g>
<defs>
<clipPath id="clip0_91_123">
<rect width="205" height="16" fill="white"/>
</clipPath>
</defs>
</svg>
